<svg xmlns="http://www.w3.org/2000/svg" width="142" height="22" viewBox="0 0 194.2 30.78"><defs><style>.cls-1{fill:#231815;}.cls-2{fill:none;stroke:#231815;stroke-linecap:round;stroke-linejoin:round;stroke-width:0.4px;}</style></defs><title>logo</title><g id="レイヤー_2" data-name="レイヤー 2"><g id="レイヤー_1-2" data-name="レイヤー 1"><path class="cls-1" d="M58.87,27c-.43,0-.85,0-1.25,0s-.79-.08-1.16-.15a10.63,10.63,0,0,1-1-.38,9.73,9.73,0,0,1-1-.29,8.24,8.24,0,0,1-.88-.48,9.2,9.2,0,0,1-.78-.57,8.38,8.38,0,0,1-.72-.59c-.22-.22-.44-.44-.64-.68s-.34-.5-.51-.75-.3-.51-.44-.77a6.51,6.51,0,0,1-.4-.79,8.33,8.33,0,0,1-.36-.81c-.09-.28-.15-.57-.22-.85a8.39,8.39,0,0,1-.18-.84,8,8,0,0,1-.08-.84c0-.28,0-.55,0-.83s0-.58,0-.88a8.65,8.65,0,0,1,.11-.89,8.79,8.79,0,0,1,.19-.89c.07-.3.12-.6.22-.9a9,9,0,0,1,.28-.88c.13-.29.26-.57.41-.84s.37-.51.55-.77a8.19,8.19,0,0,1,.59-.73,8.34,8.34,0,0,1,.58-.75,7.43,7.43,0,0,1,.76-.6,7.53,7.53,0,0,1,.81-.53,9.33,9.33,0,0,1,.84-.55,9.16,9.16,0,0,1,1-.39c.33-.11.7-.11,1.06-.19a7.93,7.93,0,0,1,1.1-.22,9.23,9.23,0,0,1,1.19-.11c.26,0,.51.06.75.07s.49,0,.72,0a6.75,6.75,0,0,1,.68.18c.23.05.44.08.65.14s.4.18.6.25.4.1.59.18.38.13.55.22.32.2.47.3a3.56,3.56,0,0,1,.42.32c.14.1.27.21.39.31s.26.19.36.29.15.25.24.36.11.24.18.34.1.21.15.32.14.18.16.28a1.54,1.54,0,0,1,0,.3,1.09,1.09,0,0,1,0,.18c0,.07,0,.13,0,.19s-.09.09-.11.15,0,.13,0,.19-.11.08-.14.13l-.09.15-.1.14s0,.12-.08.16l-.14.12-.13.12a1.49,1.49,0,0,1-.18,0s-.08.11-.14.13a.8.8,0,0,1-.16.08c-.06,0-.13,0-.19,0h-.18a.85.85,0,0,1-.17,0S64,13,63.92,13h-.09l-.1,0s0-.06-.07-.07-.08,0-.11,0l-.1,0s-.05-.05-.08-.06l-.1-.05s0-.06-.07-.08-.07,0-.1,0,0-.08-.06-.1l-.11-.05-.07-.08s-.08,0-.11-.06,0-.1,0-.13-.08,0-.11-.06-.15-.12-.21-.18-.14-.1-.21-.17-.08-.17-.15-.22-.12-.14-.19-.19-.17-.08-.24-.13l-.24-.13c-.07,0-.17-.05-.25-.09L60.86,11c-.08,0-.15-.11-.23-.14a2.74,2.74,0,0,0-.28-.05c-.08,0-.15-.11-.24-.14a2.8,2.8,0,0,0-.29,0,2.13,2.13,0,0,0-.27-.07l-.27,0a2.81,2.81,0,0,0-.29,0l-.28,0a5.82,5.82,0,0,0-.73.09,5.07,5.07,0,0,0-.68.11,4.3,4.3,0,0,0-.64.18,4,4,0,0,0-.6.24,4.74,4.74,0,0,0-.54.31c-.18.12-.32.26-.48.39a4.57,4.57,0,0,0-.49.38,5.93,5.93,0,0,0-.44.43,5.64,5.64,0,0,0-.31.53,5.62,5.62,0,0,0-.35.5c-.1.19-.13.4-.21.59s-.23.35-.29.54-.08.41-.13.61-.07.4-.1.6,0,.41,0,.61-.11.4-.11.6a5.35,5.35,0,0,0,.14,1.13c0,.2,0,.39.07.58s.15.37.21.56a4.28,4.28,0,0,0,.12.58c.08.18.19.35.28.52s.18.36.28.53a5.46,5.46,0,0,0,.36.48,3.54,3.54,0,0,0,.45.41,5.82,5.82,0,0,0,.45.4,3.51,3.51,0,0,0,.52.33,4.88,4.88,0,0,0,.55.31,6.63,6.63,0,0,0,.59.31,6.56,6.56,0,0,0,.67.17c.23,0,.49,0,.74,0s.5.11.77.11c.11,0,.22-.06.33-.06h.32c.11,0,.23.05.34,0s.19-.14.3-.16.22,0,.32,0,.22,0,.32-.06.19-.11.29-.15.21,0,.31-.08L61.6,23a2.52,2.52,0,0,0,.29-.12c.09-.05.17-.12.26-.18s.18-.1.26-.16.17-.11.25-.18l.22-.2c.07-.07.11-.18.17-.25a2.13,2.13,0,0,0,.21-.22s.1,0,.12-.07,0-.09,0-.12,0-.07.07-.1l.11-.05s0-.09,0-.11l.11,0s0-.06.07-.08.08,0,.11,0,0-.07.07-.08.07,0,.11,0l.09,0s.07,0,.1,0,0-.1.08-.11l.1,0,.09-.05h.1c.07,0,.13.07.19.08L65,21c.06,0,.14,0,.2,0s.09.11.14.13.16,0,.21,0,.11.08.16.11,0,.15.09.19l.14.11s.11.06.15.1.11.08.15.13a1.05,1.05,0,0,1,.15.33,1.27,1.27,0,0,1,.06.18s0,.12,0,.18.13.1.14.16-.08.13-.08.19a1.33,1.33,0,0,1,0,.28,1.33,1.33,0,0,1,0,.34,3,3,0,0,1-.23.3c-.07.11-.17.21-.26.33s-.11.29-.23.41-.28.18-.41.3-.22.3-.37.42-.35.16-.52.27-.36.19-.55.29-.36.23-.56.33-.39.25-.61.33-.47.1-.71.17-.48.09-.73.15-.5.1-.77.14-.53.07-.81.09a7.58,7.58,0,0,1-.84,0"/><path class="cls-1" d="M79.81,15.92c0-.27,0-.54,0-.8s.07-.52.12-.78a6.58,6.58,0,0,1,.14-.75c.07-.24.13-.48.22-.71a6.54,6.54,0,0,1,.35-.64,6.8,6.8,0,0,1,.3-.67c.13-.2.29-.38.44-.57s.34-.33.5-.5l.53-.47c.18-.15.38-.28.58-.42s.38-.28.59-.4a6.49,6.49,0,0,1,.65-.31c.22-.09.45-.2.68-.27a6.16,6.16,0,0,1,.75-.11,6.2,6.2,0,0,1,.75-.14c.26,0,.52,0,.78,0s.54,0,.79,0,.51.13.75.17.51.06.74.13a5.17,5.17,0,0,1,.69.26c.23.09.44.2.66.31s.43.21.63.34.34.33.52.49a4,4,0,0,1,.57.42A6.17,6.17,0,0,1,93,11a6.12,6.12,0,0,1,.45.56,6.34,6.34,0,0,1,.37.62,7,7,0,0,1,.26.69,5.19,5.19,0,0,1,.3.68c.07.24.06.51.11.76s.13.51.16.77,0,.54,0,.81a7.53,7.53,0,0,1-.07.83,6.88,6.88,0,0,1-.15.79,6.49,6.49,0,0,1-.11.77c-.07.24-.19.46-.28.69a5,5,0,0,1-.32.66,6.67,6.67,0,0,1-.31.66c-.13.2-.3.36-.45.55s-.29.38-.45.54-.34.34-.52.48-.38.28-.57.41-.42.23-.63.34a4.9,4.9,0,0,1-.65.32c-.22.09-.47.11-.71.18s-.47.16-.72.21-.5,0-.76.07a6.82,6.82,0,0,1-.79.08c-.26,0-.52-.08-.78-.1s-.5-.06-.75-.11a6,6,0,0,1-.74-.11,5.21,5.21,0,0,1-.7-.23c-.22-.09-.41-.25-.63-.36s-.43-.18-.63-.31a5.93,5.93,0,0,1-.56-.43c-.18-.14-.36-.3-.53-.46s-.34-.32-.49-.5a6.82,6.82,0,0,1-.4-.59c-.13-.21-.22-.43-.34-.64s-.23-.43-.32-.66-.15-.47-.22-.71-.2-.48-.25-.74,0-.53-.06-.8,0-.55,0-.83m12.27,0a5.43,5.43,0,0,0,0-.58,5,5,0,0,0-.06-.56,4.32,4.32,0,0,0-.16-.51,4.09,4.09,0,0,0-.18-.49,3.86,3.86,0,0,0-.16-.48,3.68,3.68,0,0,0-.31-.38,2.75,2.75,0,0,0-.26-.4,3.83,3.83,0,0,0-.27-.39c-.11-.11-.22-.23-.34-.33L90,11.52a3.29,3.29,0,0,0-.42-.21l-.42-.19a3.33,3.33,0,0,0-.45-.13,4.07,4.07,0,0,0-.44-.18,3.88,3.88,0,0,0-.48,0,4.07,4.07,0,0,0-.5,0,4,4,0,0,0-.48.07,4,4,0,0,0-.49,0,4,4,0,0,0-.44.17c-.15,0-.3.08-.45.14l-.42.19c-.14.08-.25.18-.38.27a3.23,3.23,0,0,0-.41.22c-.12.1-.19.26-.3.37a3.47,3.47,0,0,0-.34.32c-.1.13-.17.27-.26.41s-.15.28-.23.43-.18.28-.24.44a3.82,3.82,0,0,0-.11.51c0,.16-.15.32-.19.5a5.15,5.15,0,0,0,0,.56,5.56,5.56,0,0,0,0,.58c0,.19,0,.39,0,.57s0,.38,0,.55a4.4,4.4,0,0,0,.18.51c0,.16.06.34.12.5s.12.31.19.46.21.25.3.38a4,4,0,0,0,.24.41,3.51,3.51,0,0,0,.34.33c.11.11.23.2.35.3s.23.19.36.28a3.11,3.11,0,0,0,.38.25c.14.07.29.11.43.17a4.11,4.11,0,0,0,.42.21,3.85,3.85,0,0,0,.47.08,3.7,3.7,0,0,0,.48.09,3.85,3.85,0,0,0,.48,0c.17,0,.34.06.5.05l.48-.07c.15,0,.29-.13.44-.17l.44-.16c.14-.06.32-.06.45-.13a3.58,3.58,0,0,0,.37-.28A3.62,3.62,0,0,0,90.3,20l.35-.32c.1-.11.18-.25.28-.37s.22-.23.31-.36.19-.26.27-.41.12-.31.18-.46.14-.32.19-.48,0-.36,0-.54A5,5,0,0,0,92,16.5a5.65,5.65,0,0,0,0-.58"/><path class="cls-2" d="M79.81,15.92c0-.27,0-.54,0-.8s.07-.52.12-.78a6.58,6.58,0,0,1,.14-.75c.07-.24.13-.48.22-.71a6.54,6.54,0,0,1,.35-.64,6.8,6.8,0,0,1,.3-.67c.13-.2.29-.38.44-.57s.34-.33.5-.5l.53-.47c.18-.15.38-.28.58-.42s.38-.28.59-.4a6.49,6.49,0,0,1,.65-.31c.22-.09.45-.2.68-.27a6.16,6.16,0,0,1,.75-.11,6.2,6.2,0,0,1,.75-.14c.26,0,.52,0,.78,0s.54,0,.79,0,.51.13.75.17.51.06.74.13a5.17,5.17,0,0,1,.69.26c.23.09.44.2.66.31s.43.21.63.34.34.33.52.49a4,4,0,0,1,.57.42A6.17,6.17,0,0,1,93,11a6.12,6.12,0,0,1,.45.56,6.34,6.34,0,0,1,.37.62,7,7,0,0,1,.26.69,5.19,5.19,0,0,1,.3.68c.07.24.06.51.11.76s.13.51.16.77,0,.54,0,.81a7.53,7.53,0,0,1-.07.83,6.88,6.88,0,0,1-.15.79,6.49,6.49,0,0,1-.11.77c-.07.24-.19.46-.28.69a5,5,0,0,1-.32.66,6.67,6.67,0,0,1-.31.66c-.13.2-.3.36-.45.55s-.29.38-.45.54-.34.34-.52.48-.38.28-.57.41-.42.23-.63.34a4.9,4.9,0,0,1-.65.32c-.22.09-.47.11-.71.18s-.47.16-.72.21-.5,0-.76.07a6.82,6.82,0,0,1-.79.08c-.26,0-.52-.08-.78-.1s-.5-.06-.75-.11a6,6,0,0,1-.74-.11,5.21,5.21,0,0,1-.7-.23c-.22-.09-.41-.25-.63-.36s-.43-.18-.63-.31a5.93,5.93,0,0,1-.56-.43c-.18-.14-.36-.3-.53-.46s-.34-.32-.49-.5a6.82,6.82,0,0,1-.4-.59c-.13-.21-.22-.43-.34-.64s-.23-.43-.32-.66-.15-.47-.22-.71-.2-.48-.25-.74,0-.53-.06-.8S79.81,16.2,79.81,15.92Zm12.27,0a5.43,5.43,0,0,0,0-.58,5,5,0,0,0-.06-.56,4.32,4.32,0,0,0-.16-.51,4.09,4.09,0,0,0-.18-.49,3.86,3.86,0,0,0-.16-.48,3.68,3.68,0,0,0-.31-.38,2.75,2.75,0,0,0-.26-.4,3.83,3.83,0,0,0-.27-.39c-.11-.11-.22-.23-.34-.33L90,11.52a3.29,3.29,0,0,0-.42-.21l-.42-.19a3.33,3.33,0,0,0-.45-.13,4.07,4.07,0,0,0-.44-.18,3.88,3.88,0,0,0-.48,0,4.07,4.07,0,0,0-.5,0,4,4,0,0,0-.48.07,4,4,0,0,0-.49,0,4,4,0,0,0-.44.17c-.15,0-.3.08-.45.14l-.42.19c-.14.08-.25.18-.38.27a3.23,3.23,0,0,0-.41.22c-.12.1-.19.26-.3.37a3.47,3.47,0,0,0-.34.32c-.1.13-.17.27-.26.41s-.15.28-.23.43-.18.28-.24.44a3.82,3.82,0,0,0-.11.51c0,.16-.15.32-.19.5a5.15,5.15,0,0,0,0,.56,5.56,5.56,0,0,0,0,.58c0,.19,0,.39,0,.57s0,.38,0,.55a4.4,4.4,0,0,0,.18.51c0,.16.06.34.12.5s.12.31.19.46.21.25.3.38a4,4,0,0,0,.24.41,3.51,3.51,0,0,0,.34.33c.11.11.23.2.35.3s.23.19.36.28a3.11,3.11,0,0,0,.38.25c.14.07.29.11.43.17a4.11,4.11,0,0,0,.42.21,3.85,3.85,0,0,0,.47.08,3.7,3.7,0,0,0,.48.09,3.85,3.85,0,0,0,.48,0c.17,0,.34.06.5.05l.48-.07c.15,0,.29-.13.44-.17l.44-.16c.14-.06.32-.06.45-.13a3.58,3.58,0,0,0,.37-.28A3.62,3.62,0,0,0,90.3,20l.35-.32c.1-.11.18-.25.28-.37s.22-.23.31-.36.19-.26.27-.41.12-.31.18-.46.14-.32.19-.48,0-.36,0-.54A5,5,0,0,0,92,16.5,5.65,5.65,0,0,0,92.08,15.92Z"/><path class="cls-1" d="M120.7,25.17c0-.1,0-.21,0-.32s0-.23,0-.35-.1-.25-.09-.38.06-.27.06-.4,0-.28,0-.43,0-.29,0-.44.08-.3.08-.46-.08-.31-.07-.47.09-.32.09-.48-.05-.33-.05-.49,0-.33,0-.49-.06-.33,0-.49.08-.33.08-.49V19c0-.16,0-.32,0-.48s0-.31,0-.46-.06-.2-.06-.3,0-.2,0-.3v-.28c0-.1,0-.19,0-.28s.08-.18.08-.27a2.27,2.27,0,0,1-.06-.25c0-.09,0-.17,0-.26a1.79,1.79,0,0,0,0-.23c0-.08.08-.16.08-.23v-.21c0-.07-.07-.14-.07-.2s0-.13,0-.19,0-.12,0-.17,0-.11,0-.16,0-.1,0-.15,0-.09,0-.12-.08-.33-.1-.48a3.4,3.4,0,0,0-.06-.46,2.7,2.7,0,0,0-.14-.4c0-.13,0-.27-.1-.39a3.88,3.88,0,0,0-.15-.36,3.15,3.15,0,0,0-.22-.29,2.88,2.88,0,0,0-.22-.27,2.61,2.61,0,0,0-.23-.25c-.08-.07-.13-.19-.21-.25s-.19-.12-.28-.18a2.69,2.69,0,0,0-.29-.16,3.26,3.26,0,0,0-.33-.05,2.64,2.64,0,0,0-.29-.15c-.1,0-.22,0-.33,0s-.21-.11-.32-.12-.23.06-.34.06a3.87,3.87,0,0,0-.49,0,2.65,2.65,0,0,0-.48.07,3.88,3.88,0,0,0-.49.11l-.48.18c-.16.07-.33.1-.49.17s-.26.25-.41.34a4,4,0,0,0-.46.23c-.15.1-.26.23-.4.34l-.37.36a4.54,4.54,0,0,0-.41.33c-.11.13-.15.31-.25.45s-.27.24-.35.39a4.13,4.13,0,0,0-.15.5,3.81,3.81,0,0,0-.23.45,4.54,4.54,0,0,0-.09.51,3,3,0,0,0,0,.52.83.83,0,0,0,0,.15c0,.05,0,.1,0,.16s-.07.1-.07.16,0,.11,0,.17.07.12.07.18a1.1,1.1,0,0,0,0,.18c0,.07,0,.13,0,.19s0,.13,0,.2,0,.14,0,.2,0,.14,0,.21-.09.15-.09.22.1.15.1.22,0,.15,0,.23,0,.16,0,.24,0,.16,0,.24v.25c0,.1,0,.21,0,.32s0,.21,0,.32v.34c0,.11,0,.23,0,.35s0,.24,0,.36,0,.24,0,.37,0,.25,0,.38,0,.26,0,.39,0,.27,0,.4.06.27.06.41,0,.28,0,.43-.05.29-.05.44.12.29.12.44-.08.31-.08.46.09.31.09.47,0,.32,0,.49h0c0,.07.09.14.08.2s-.09.12-.1.18a1,1,0,0,1,0,.18,1,1,0,0,1-.06.16.75.75,0,0,1-.09.15s0,.1-.08.14a.63.63,0,0,1-.11.12s-.1.05-.14.09,0,.12-.08.15l-.14.08s-.12,0-.16,0a.88.88,0,0,1-.16,0s-.09.12-.14.13a.9.9,0,0,1-.16,0l-.17,0h-.32c-.06,0-.11-.07-.16-.08l-.16,0s-.13,0-.18,0-.09-.07-.14-.09a.48.48,0,0,1-.14-.09l-.14-.09-.12-.11s-.13,0-.17-.06,0-.11-.07-.16,0-.1-.07-.15-.1-.07-.12-.12a.86.86,0,0,1-.1-.16c0-.05,0-.13,0-.19s-.06-.12-.07-.18.06-.13.06-.2a0,0,0,0,0,0,0h0c0-.25,0-.49,0-.73l0-.7c0-.24,0-.46,0-.69s0-.45,0-.67,0-.44,0-.66,0-.43,0-.64,0-.42,0-.62-.07-.41-.06-.62,0-.4,0-.6,0-.39,0-.59.06-.38.06-.57v-.57c0-.19,0-.38,0-.56s-.06-.37-.06-.55.09-.36.09-.54-.06-.36-.06-.54,0-.26,0-.39,0-.25,0-.38,0-.25,0-.38,0-.25,0-.37,0-.26,0-.38-.06-.25-.06-.38,0-.25,0-.38.1-.25.1-.37,0-.25,0-.38-.08-.25-.08-.37,0-.26,0-.38,0-.25,0-.38,0-.26,0-.39S108,10.1,108,10s0-.26,0-.39.07-.26.06-.39H108c0-.06.07-.12.08-.18s0-.12,0-.17.07-.1.09-.15,0-.13,0-.18.1-.07.13-.11,0-.13,0-.17.14,0,.18,0,.06-.09.1-.12.05-.12.09-.15.11,0,.16,0l.15-.07s.11,0,.17,0,.08-.1.13-.11.12,0,.17,0a1,1,0,0,1,.17,0,.76.76,0,0,1,.16,0s.1.08.16.08.11,0,.16,0l.16,0a.91.91,0,0,1,.14.07l.15,0c.05,0,.14,0,.19,0a1.5,1.5,0,0,0,.13.11S111,8,111,8s0,.1.08.14.12,0,.16.07,0,.11.06.15a.64.64,0,0,1,.1.13l.06.15c0,.06,0,.13,0,.18s.12.11.13.17,0,.13,0,.2-.06,0-.06.05,0,0,0,0,0,0,0,.05.11,0,.11.05-.08,0-.08,0,0,0,0,.06-.06,0-.06,0,0,0,0,.05.07,0,.07.05-.09,0-.09,0,.11,0,.11.05,0,0,0,0-.09,0-.09.05.07,0,.07.05-.08,0-.08,0,.1,0,.1.05l0,0v0s0,0,0,0v0l0,0h.09l0,0s0,0,0,0h.06s0,0,0,0l0,0,0,0,0-.07v.07h0v0h0l0,0,0,0h.05s0,0,0,0l.07,0s0,0,0,0,0,0,0-.05l.1.06,0,0h0s0,0,0,0,.23-.16.33-.26a2.69,2.69,0,0,1,.27-.32,4,4,0,0,1,.29-.29l.32-.25c.11-.08.24-.14.35-.21a3.59,3.59,0,0,1,.33-.25l.36-.19c.12-.06.26-.07.39-.12s.23-.15.36-.2.27,0,.4-.06l.38-.11.39-.09.39-.06.39,0,.4,0,.39,0c.21,0,.42,0,.62,0a4.21,4.21,0,0,1,.62,0c.2,0,.41.08.61.13s.39.12.58.18.37.16.56.25.36.18.54.28a5.58,5.58,0,0,1,.48.37,3.47,3.47,0,0,1,.47.39,5.74,5.74,0,0,1,.45.41,4.63,4.63,0,0,1,.4.48,4.8,4.8,0,0,1,.36.52,6.48,6.48,0,0,1,.33.57,6.17,6.17,0,0,1,.2.65c.07.22.21.43.27.67s0,.49.06.75.1.51.11.78c0,.08,0,.17,0,.26a2.54,2.54,0,0,1,0,.29c0,.1,0,.21,0,.32s0,.23,0,.35.08.25.08.38,0,.27,0,.4,0,.28,0,.43,0,.29,0,.44,0,.3,0,.46-.06.32-.06.48,0,.32,0,.48.06.33.06.5-.07.33-.07.5,0,.34,0,.51,0,.33,0,.5,0,.34,0,.51.06.21.06.31-.09.21-.09.31,0,.2,0,.3,0,.2,0,.3.07.2.06.3,0,.19,0,.29-.08.19-.08.29.1.18.1.28,0,.18,0,.27,0,.18,0,.26V24c0,.08,0,.17,0,.25a2,2,0,0,1,0,.24c0,.07,0,.15,0,.22a1.8,1.8,0,0,1,0,.22c0,.08,0,.14,0,.21s-.1.14-.11.21.08.16.06.23a1.77,1.77,0,0,1,0,.2c0,.06-.14.07-.17.13s0,.13,0,.18l-.11.13-.12.13s0,.11-.09.14a1.31,1.31,0,0,1-.11.12s-.12,0-.17.06-.07.1-.11.12-.14,0-.19,0-.08.09-.14.1-.11,0-.17,0a.83.83,0,0,1-.15,0c-.06,0-.11.08-.16.08s-.11-.08-.16-.08-.12,0-.17,0a.94.94,0,0,1-.15-.06c-.06,0-.1-.07-.15-.09l-.15,0s-.12,0-.17,0l-.13-.09a.63.63,0,0,1-.12-.11s0-.1-.09-.14-.14,0-.17-.07,0-.12,0-.17-.08-.08-.11-.13l-.08-.16c0-.06,0-.12,0-.18a1,1,0,0,1,0-.18c0-.07.08-.14.08-.2h0"/><path class="cls-1" d="M144.82,23.55c-.25,0-.5,0-.75-.05l-.72-.12c-.23-.05-.47-.08-.7-.14s-.42-.21-.64-.3-.46-.11-.67-.22-.37-.26-.57-.39-.36-.28-.54-.42-.37-.27-.53-.44a5.72,5.72,0,0,1-.45-.53c-.14-.18-.29-.37-.42-.57s-.23-.41-.35-.62-.18-.45-.27-.68a7.35,7.35,0,0,1-.2-.71c-.06-.25-.14-.49-.19-.75s-.11-.51-.13-.78-.06-.54-.06-.82.08-.56.1-.84.08-.54.12-.8.06-.53.13-.78a7.49,7.49,0,0,1,.28-.71,7.41,7.41,0,0,1,.25-.71,6.34,6.34,0,0,1,.41-.6,6.27,6.27,0,0,1,.36-.62c.15-.19.32-.35.48-.52s.32-.34.5-.5a5.8,5.8,0,0,1,.59-.36,5.56,5.56,0,0,1,.54-.42c.2-.11.42-.2.63-.3s.43-.13.65-.2.44-.16.66-.21.46-.08.69-.11.47,0,.71,0a6,6,0,0,1,.74.05,5,5,0,0,1,.69.08,6.4,6.4,0,0,1,.66.14c.22.07.43.12.62.2a4.88,4.88,0,0,1,.55.31c.18.1.37.17.54.28s.35.2.5.32.25.3.39.43a5,5,0,0,1,.42.37c.12.14.22.29.33.44s.23.26.32.41a4.78,4.78,0,0,1,.19.48,4.19,4.19,0,0,1,.16.46,2.35,2.35,0,0,1,.19.43,2.14,2.14,0,0,1,.08.44,2,2,0,0,1,0,.42c0,.09,0,.17,0,.25s0,.15-.05.23a1.89,1.89,0,0,1,0,.23c0,.07,0,.17,0,.24s-.12.11-.15.18l-.12.19a1.06,1.06,0,0,1-.11.21,1.92,1.92,0,0,1-.13.17,1.36,1.36,0,0,1-.17.17c-.06,0-.16,0-.23.1l-.21.11c-.08,0-.13.14-.21.17l-.27.09c-.09,0-.2,0-.3,0s-.18.1-.29.12-.22,0-.33,0h-.13s-.09,0-.14,0-.09,0-.14,0l-.15,0s-.1,0-.16,0-.1,0-.16,0-.11.06-.16.06-.12-.08-.18-.08a1,1,0,0,1-.17,0c-.06,0-.12,0-.18,0l-.19,0c-.05,0-.12.05-.18.05l-.19,0c-.06,0-.13,0-.19,0H146c-.06,0-.13.05-.19.05s-.26-.07-.4-.07H145c-.13,0-.27.06-.4,0l-.4,0c-.13,0-.26,0-.39,0s-.25,0-.38,0l-.37,0h-.36c-.12,0-.23,0-.34,0S142.11,16,142,16s-.2.07-.3.07l-.28,0a2,2,0,0,0-.24-.05c-.07,0-.15.06-.21.06s-.13,0-.18,0l-.15,0s0,0,0,0h0s0,0,0,0l-.05,0,0,0,0,0a.05.05,0,0,0,0,0s0,0,0,0,0,0,0,.05,0,0,0,.05,0,0,0,0a.07.07,0,0,0,0,.05s0,0,0,.06.07,0,.07.06,0,0,0,.06,0,0,0,.07,0,.34,0,.51a3.41,3.41,0,0,0,.09.48c0,.16.09.31.13.45s.12.28.17.42.09.29.16.42.16.23.24.35a2.88,2.88,0,0,0,.28.33,2.1,2.1,0,0,0,.26.33,2.6,2.6,0,0,0,.33.25c.12.09.22.17.35.25s.22.17.34.24l.4.17c.13.05.27.06.42.1s.27.1.41.13.3,0,.45,0a3.43,3.43,0,0,0,.44.09c.13,0,.25,0,.37,0s.24,0,.35-.05.22-.06.33-.08.22,0,.33,0l.29-.09c.1,0,.18-.13.26-.17l.27-.11c.09,0,.2,0,.29-.08s.17-.07.25-.12.12-.15.2-.2.16-.08.23-.14.12-.13.19-.19.16-.07.23-.13l.17-.19.18-.18c.06-.06.1-.13.16-.2s.06,0,.08,0,0-.06,0-.08,0,0,.06,0,.07,0,.09,0,0-.08,0-.09.07,0,.09,0,0-.08,0-.09h.07l.05,0,.06,0s0,0,.06,0,0,.05.06,0,0,0,0,0h0s.06,0,.07,0l.06,0,.13,0,.12,0,.13,0,.12,0s.11,0,.15,0,0,.11.07.13.12,0,.15,0l.1.1.11.09s0,.12,0,.16.12,0,.15.06,0,.12,0,.16.09.06.11.1,0,.1,0,.15a.61.61,0,0,1,0,.12c0,.05.05.09.05.14s-.06,0-.06.05,0,0,0,.06-.05,0-.05.05,0,0,0,.07,0,0-.05,0,0,0,0,.06,0,.05,0,.07-.06,0-.06,0,0,0,0,.06-.06,0-.07,0,0,.06,0,.08l0,.05a.12.12,0,0,1-.05.05s0,0,0,0,0,.06,0,.08,0,0-.06.05l-.27.26c-.09.09-.15.21-.24.3a3.65,3.65,0,0,1-.34.18,3.47,3.47,0,0,1-.29.25c-.1.07-.16.19-.27.26l-.32.21-.34.18-.36.15c-.13.06-.23.15-.35.19s-.28.06-.41.1-.27.1-.41.13a2.92,2.92,0,0,1-.44.06c-.14,0-.29.1-.44.13s-.32,0-.48,0-.33.07-.51.08h-.53m-.06-12.94a3.39,3.39,0,0,0-.45,0,3,3,0,0,0-.43,0c-.15,0-.27.1-.41.14a3,3,0,0,0-.41.09c-.12.05-.21.19-.32.25a4,4,0,0,0-.36.17,3.53,3.53,0,0,0-.32.21c-.1.08-.16.19-.25.27l-.26.24-.22.26-.2.25c0,.08-.13.15-.17.23s-.13.15-.17.22,0,.17-.08.24a1.49,1.49,0,0,0,0,.21c0,.06,0,.12,0,.17s-.07,0-.07,0v.05h.07s0,0,0,0,.06,0,.09,0,0,.08.07.09.09-.06.13-.06a.57.57,0,0,0,.14,0h.19c.07,0,.14.08.23.08s.17-.06.27-.05h.32c.12,0,.25,0,.38,0s.28,0,.43,0h.5c.18,0,.36.05.56.05h.26l.26,0,.26,0,.25,0c.09,0,.18.05.26.05l.25,0c.09,0,.17,0,.25,0s.16.06.24.06.16-.05.24-.05h.23c.07,0,.15,0,.22,0s.14.06.21.06l.2,0c.06,0,.12-.06.19-.06h.17s.11,0,.16,0h.18l.08,0s0-.09.05-.09.07,0,.09,0l.07,0s0-.06,0-.07l0-.06s0,0,0-.06.06,0,.07,0,0,0,0-.05,0-.07,0-.09,0,0,0-.06.08,0,.09,0-.07-.06-.07-.08,0-.05,0-.07a.81.81,0,0,0,0-.15,1.66,1.66,0,0,0-.06-.16,1.23,1.23,0,0,0,0-.19l-.09-.2c0-.07-.1-.12-.15-.19A1.09,1.09,0,0,0,148,12c-.06-.07-.15-.11-.21-.18s-.07-.19-.14-.26-.14-.15-.23-.22-.19-.1-.28-.16-.19-.14-.29-.19-.24-.06-.36-.11-.24-.06-.37-.1-.26-.11-.41-.14-.29-.06-.45-.07-.33,0-.5,0"/><path class="cls-2" d="M144.82,23.55c-.25,0-.5,0-.75-.05l-.72-.12c-.23-.05-.47-.08-.7-.14s-.42-.21-.64-.3-.46-.11-.67-.22-.37-.26-.57-.39-.36-.28-.54-.42-.37-.27-.53-.44a5.72,5.72,0,0,1-.45-.53c-.14-.18-.29-.37-.42-.57s-.23-.41-.35-.62-.18-.45-.27-.68a7.35,7.35,0,0,1-.2-.71c-.06-.25-.14-.49-.19-.75s-.11-.51-.13-.78-.06-.54-.06-.82.08-.56.1-.84.08-.54.12-.8.06-.53.13-.78a7.49,7.49,0,0,1,.28-.71,7.41,7.41,0,0,1,.25-.71,6.34,6.34,0,0,1,.41-.6,6.27,6.27,0,0,1,.36-.62c.15-.19.32-.35.48-.52s.32-.34.5-.5a5.8,5.8,0,0,1,.59-.36,5.56,5.56,0,0,1,.54-.42c.2-.11.42-.2.63-.3s.43-.13.65-.2.44-.16.66-.21.46-.08.69-.11.47,0,.71,0a6,6,0,0,1,.74.05,5,5,0,0,1,.69.08,6.4,6.4,0,0,1,.66.14c.22.07.43.12.62.2a4.88,4.88,0,0,1,.55.31c.18.1.37.17.54.28s.35.2.5.32.25.3.39.43a5,5,0,0,1,.42.37c.12.14.22.29.33.44s.23.26.32.41a4.78,4.78,0,0,1,.19.48,4.19,4.19,0,0,1,.16.46,2.35,2.35,0,0,1,.19.43,2.14,2.14,0,0,1,.08.44,2,2,0,0,1,0,.42c0,.09,0,.17,0,.25s0,.15-.05.23a1.89,1.89,0,0,1,0,.23c0,.07,0,.17,0,.24s-.12.11-.15.18l-.12.19a1.06,1.06,0,0,1-.11.21,1.92,1.92,0,0,1-.13.17,1.36,1.36,0,0,1-.17.17c-.06,0-.16,0-.23.1l-.21.11c-.08,0-.13.14-.21.17l-.27.09c-.09,0-.2,0-.3,0s-.18.1-.29.12-.22,0-.33,0h-.13s-.09,0-.14,0-.09,0-.14,0l-.15,0s-.1,0-.16,0-.1,0-.16,0-.11.06-.16.06-.12-.08-.18-.08a1,1,0,0,1-.17,0c-.06,0-.12,0-.18,0l-.19,0c-.05,0-.12.05-.18.05l-.19,0c-.06,0-.13,0-.19,0H146c-.06,0-.13.05-.19.05s-.26-.07-.4-.07H145c-.13,0-.27.06-.4,0l-.4,0c-.13,0-.26,0-.39,0s-.25,0-.38,0l-.37,0h-.36c-.12,0-.23,0-.34,0S142.11,16,142,16s-.2.07-.3.07l-.28,0a2,2,0,0,0-.24-.05c-.07,0-.15.06-.21.06s-.13,0-.18,0l-.15,0s0,0,0,0h0s0,0,0,0l-.05,0,0,0,0,0a.05.05,0,0,0,0,0s0,0,0,0,0,0,0,.05,0,0,0,.05,0,0,0,0a.07.07,0,0,0,0,.05s0,0,0,.06.07,0,.07.06,0,0,0,.06,0,0,0,.07,0,.34,0,.51a3.41,3.41,0,0,0,.09.48c0,.16.09.31.13.45s.12.28.17.42.09.29.16.42.16.23.24.35a2.88,2.88,0,0,0,.28.33,2.1,2.1,0,0,0,.26.33,2.6,2.6,0,0,0,.33.25c.12.09.22.17.35.25s.22.17.34.24l.4.17c.13.05.27.06.42.1s.27.1.41.13.3,0,.45,0a3.43,3.43,0,0,0,.44.09c.13,0,.25,0,.37,0s.24,0,.35-.05.22-.06.33-.08.22,0,.33,0l.29-.09c.1,0,.18-.13.26-.17l.27-.11c.09,0,.2,0,.29-.08s.17-.07.25-.12.12-.15.2-.2.16-.08.23-.14.12-.13.19-.19.16-.07.23-.13l.17-.19.18-.18c.06-.06.1-.13.16-.2s.06,0,.08,0,0-.06,0-.08,0,0,.06,0,.07,0,.09,0,0-.08,0-.09.07,0,.09,0,0-.08,0-.09h.07l.05,0,.06,0s0,0,.06,0,0,.05.06,0,0,0,0,0h0s.06,0,.07,0l.06,0,.13,0,.12,0,.13,0,.12,0s.11,0,.15,0,0,.11.07.13.12,0,.15,0l.1.1.11.09s0,.12,0,.16.12,0,.15.06,0,.12,0,.16.09.06.11.1,0,.1,0,.15a.61.61,0,0,1,0,.12c0,.05.05.09.05.14s-.06,0-.06.05,0,0,0,.06-.05,0-.05.05,0,0,0,.07,0,0-.05,0,0,0,0,.06,0,.05,0,.07-.06,0-.06,0,0,0,0,.06-.06,0-.07,0,0,.06,0,.08l0,.05a.12.12,0,0,1-.05.05s0,0,0,0,0,.06,0,.08,0,0-.06.05l-.27.26c-.09.09-.15.21-.24.3a3.65,3.65,0,0,1-.34.18,3.47,3.47,0,0,1-.29.25c-.1.07-.16.19-.27.26l-.32.21-.34.18-.36.15c-.13.06-.23.15-.35.19s-.28.06-.41.1-.27.1-.41.13a2.92,2.92,0,0,1-.44.06c-.14,0-.29.1-.44.13s-.32,0-.48,0-.33.07-.51.08Zm-.06-12.94a3.39,3.39,0,0,0-.45,0,3,3,0,0,0-.43,0c-.15,0-.27.1-.41.14a3,3,0,0,0-.41.09c-.12.05-.21.19-.32.25a4,4,0,0,0-.36.17,3.53,3.53,0,0,0-.32.21c-.1.08-.16.19-.25.27l-.26.24-.22.26-.2.25c0,.08-.13.15-.17.23s-.13.15-.17.22,0,.17-.08.24a1.49,1.49,0,0,0,0,.21c0,.06,0,.12,0,.17s-.07,0-.07,0v.05h.07s0,0,0,0,.06,0,.09,0,0,.08.07.09.09-.06.13-.06a.57.57,0,0,0,.14,0h.19c.07,0,.14.08.23.08s.17-.06.27-.05h.32c.12,0,.25,0,.38,0s.28,0,.43,0h.5c.18,0,.36.05.56.05h.26l.26,0,.26,0,.25,0c.09,0,.18.05.26.05l.25,0c.09,0,.17,0,.25,0s.16.06.24.06.16-.05.24-.05h.23c.07,0,.15,0,.22,0s.14.06.21.06l.2,0c.06,0,.12-.06.19-.06h.17s.11,0,.16,0h.18l.08,0s0-.09.05-.09.07,0,.09,0l.07,0s0-.06,0-.07l0-.06s0,0,0-.06.06,0,.07,0,0,0,0-.05,0-.07,0-.09,0,0,0-.06.08,0,.09,0-.07-.06-.07-.08,0-.05,0-.07a.81.81,0,0,0,0-.15,1.66,1.66,0,0,0-.06-.16,1.23,1.23,0,0,0,0-.19l-.09-.2c0-.07-.1-.12-.15-.19A1.09,1.09,0,0,0,148,12c-.06-.07-.15-.11-.21-.18s-.07-.19-.14-.26-.14-.15-.23-.22-.19-.1-.28-.16-.19-.14-.29-.19-.24-.06-.36-.11-.24-.06-.37-.1-.26-.11-.41-.14-.29-.06-.45-.07S144.93,10.61,144.76,10.61Z"/><path class="cls-1" d="M169.46,25.21a1.42,1.42,0,0,1,0,.2,1.23,1.23,0,0,1,0,.19c0,.06,0,.12-.05.18s-.12.08-.14.13,0,.13,0,.17l-.09.15-.09.13s-.13,0-.17.06-.05.11-.09.14-.12,0-.17,0a.43.43,0,0,1-.13.09.44.44,0,0,1-.15,0c-.05,0-.09.08-.14.09a.9.9,0,0,1-.16,0,1,1,0,0,1-.16.05,1,1,0,0,1-.17,0s-.11-.08-.17-.09-.12.05-.17,0-.1-.07-.16-.09l-.15-.05a.34.34,0,0,1-.15-.06c-.06,0-.15,0-.2,0l-.14-.08a1.36,1.36,0,0,1-.12-.12s0-.12-.08-.16-.13,0-.16-.08,0-.11-.06-.16l-.1-.14a1,1,0,0,1-.06-.16,1.16,1.16,0,0,1,0-.18c0-.06,0-.12,0-.18a1.46,1.46,0,0,1-.05-.2s.08,0,.08,0h-.06c0-.25,0-.49,0-.73s.06-.47.07-.7,0-.46,0-.69,0-.45,0-.67.09-.44.1-.66-.06-.43-.06-.64,0-.42,0-.63,0-.41,0-.61.06-.4.07-.6-.06-.4-.06-.6.11-.38.11-.58-.1-.38-.1-.57,0-.38,0-.56,0-.37,0-.56.07-.36.07-.55,0-.36,0-.54,0-.26,0-.38,0-.26,0-.39v-.38c0-.12,0-.25,0-.37s0-.26,0-.38V13c0-.13.07-.25.07-.38s0-.25,0-.37,0-.25,0-.38,0-.25,0-.38,0-.25,0-.37,0-.26,0-.38,0-.26,0-.39,0-.26,0-.39,0-.25,0-.39,0-.25,0-.38h-.07c0-.06,0-.12,0-.18s0-.13,0-.18.12-.08.14-.13,0-.12,0-.16,0-.12.06-.16l.09-.13s.12,0,.16-.07.1,0,.14-.07a.84.84,0,0,1,.14-.06c.05,0,.06-.12.11-.14s.13,0,.18,0,.09-.07.14-.09.1,0,.16-.06.1-.06.16-.07a.86.86,0,0,1,.16,0h.17l.16,0h.15c.06,0,.12,0,.17,0l.15,0c.05,0,.08.09.13.11s.08.06.13.08.11,0,.16,0,.06.08.1.12.13,0,.17.05a1,1,0,0,0,.09.13s.09.07.12.11a1.09,1.09,0,0,1,.08.15s0,.12,0,.17,0,.12,0,.18.08.11.09.17-.07.14-.07.21v.16s0,0,0,.05,0,0,0,0,0,0,0,0,.07,0,.07,0,0,0,0,0,.06,0,.06,0-.07,0-.07,0,.05,0,.05.05-.06,0-.06,0l0,0s0,0,0,.05,0,0,0,.05.06,0,.06,0,0,0,0,0h-.06l.06,0h-.05v0h.1s0,0,0,0l-.07,0h.08l-.05,0s0,0,0,0l-.08,0h0l0,0h0v0l0,.06v-.07h0l0,0s0,0,0,0,0,0,0,0,.06.05.07,0-.05-.06,0-.07.06,0,.07,0h0s0,0,0,0l0-.07.05,0c.11-.12.18-.26.29-.37s.24-.2.35-.3.26-.16.38-.25.22-.2.34-.28l.35-.25c.13-.07.25-.16.37-.22s.29,0,.41-.11l.37-.15c.12-.05.23-.13.35-.17s.25,0,.37-.06.2-.17.32-.19.22,0,.33,0l.3-.06.29,0c.09,0,.18.06.26.06a2.25,2.25,0,0,1,.22,0h.2l.19,0a1.22,1.22,0,0,1,.17.07c.06,0,.13,0,.18,0s.09.08.14.11.12,0,.16,0,.08.09.12.12,0,.12.06.16a.58.58,0,0,1,.12.1s.11,0,.13.08,0,.12,0,.17.07.07.09.12a.8.8,0,0,1,0,.15c0,.05.1.09.1.14s0,.11,0,.16,0,.11,0,.16-.07.1-.08.15,0,.11,0,.16,0,.11,0,.16,0,.12,0,.17-.07.1-.09.15-.05.1-.08.14-.13.05-.16.09,0,.15,0,.19-.14,0-.18.06-.05.13-.1.17l-.16.08c-.06,0-.1.11-.16.13s-.14,0-.21,0a1.18,1.18,0,0,1-.19.11c-.07,0-.15,0-.23,0s-.15.08-.23.09-.32,0-.47,0a4.1,4.1,0,0,0-.48.1,4.52,4.52,0,0,0-.47.11,3.66,3.66,0,0,0-.46.18l-.45.2c-.15.07-.28.19-.42.27s-.31.11-.45.2-.26.21-.38.31-.28.19-.4.3a3.57,3.57,0,0,0-.31.37c-.11.13-.24.23-.33.36s-.1.32-.18.46a4.16,4.16,0,0,0-.23.42c-.06.14-.12.29-.17.44a4.28,4.28,0,0,0-.17.46,4.21,4.21,0,0,0,0,.5c0,.05,0,.1,0,.15a1,1,0,0,0,0,.16c0,.05.07.11.07.17s-.11.1-.11.16.07.12.06.18,0,.12,0,.18,0,.12,0,.19v.19c0,.07-.07.13-.07.2v.21c0,.07.08.14.08.21s-.1.14-.1.22.09.15.09.23,0,.15,0,.23,0,.16,0,.24-.09.16-.09.25,0,.21,0,.32,0,.21,0,.32,0,.22,0,.34.06.23.06.34,0,.24,0,.36,0,.24,0,.36,0,.25,0,.38,0,.26,0,.39,0,.26,0,.4,0,.27,0,.41.08.28.08.42,0,.28,0,.43,0,.3,0,.44-.07.31-.06.47,0,.31,0,.46l0,.49h0v-.05s.05.05.05.05"/><path class="cls-1" d="M193.69,1l-.06,0,0-.05a.1.1,0,0,1,0,0l-.05,0a.1.1,0,0,0-.05,0,.1.1,0,0,0,0,0l0-.06-.06,0-.05,0,0,0-.05,0s0,0-.06,0,0,0,0,0l-.05,0-.05,0-.06,0-.06,0-.05,0-.07,0-.05,0-.06,0-.06,0,0,0-.06,0h-.13a.15.15,0,0,0-.06,0h-.54l-.08,0-.06,0h-.45l-.06,0-.06,0h-.07l0,0-.06,0-.07,0-.06,0-.06,0h-.06s0,0-.05,0h-.07a.1.1,0,0,1-.05,0l-.06,0a.1.1,0,0,0-.05,0l-.06,0-.05,0,0,0-.05,0,0,0-.06,0,0,0s0,0-.06,0l-.05,0s0,0-.05,0l0,0,0,.05-.05,0s0,0,0,.05l0,0,0,.06s0,0,0,.06l0,.05,0,.06,0,.05s0,0,0,.06l0,.06s0,0,0,.05,0,.05,0,.07,0,0,0,.05,0,0,0,.07a.11.11,0,0,0,0,.06.15.15,0,0,1,0,.06s0,0,0,.06,0,0,0,.07a.14.14,0,0,0,0,.06s0,0,0,.06,0,0,0,.06a.2.2,0,0,1,0,.07v.12s0,0,0,.07v.25a.13.13,0,0,0,0,.06v.07a.14.14,0,0,0,0,.06s0,0,0,.06,0,0,0,.06V3s0,0,0,.06,0,0,0,.06l0,.06a.2.2,0,0,0,0,.07l0,0a.14.14,0,0,0,0,.06l0,.06s0,0,0,.06,0,0,0,.06,0,0,0,.06,0,0,0,.05,0,0,0,.06,0,0,0,0l0,0s0,0,0,.06a.1.1,0,0,0,0,.05l0,0,0,0,0,0s0,0,.05,0,0,0,0,0l.05,0,.06,0,0,0,.05,0,.06,0a.1.1,0,0,0,0,0l.06,0,.06,0,.05,0,.06,0,.06,0h.13l.06,0h.06l.06,0h.45l.06,0,.06,0,.07,0h.06l.07,0,.06,0,.05,0-.05,0,0,0s0,0-.05,0l-.06,0,0,0-.06,0,0,0s0,0,0,0,0,0-.05-.05,0-.06.06,0l.05.05h.06l.06,0,0,0,.07,0,.05,0,.06,0,.06,0,.06,0,.06,0,.06,0h0l.05,0s.05,0,.07,0h.38l.06,0h.13l.06,0h.06l.07,0,.06,0h.06l.06,0H193l.06,0,.05,0,.06,0,.06,0,.06,0,0,0,.05,0,0,0,.06-.05,0,0a.1.1,0,0,0,0,0l.05,0s0,0,0-.06a.1.1,0,0,0,0,0l.05,0,0-.05,0-.06,0-.05s0,0,.05,0,0,0,0-.06,0,0,0-.06l0,0a.14.14,0,0,1,0-.06s0,0,0-.06,0,0,0-.06a.14.14,0,0,1,0-.06V2.91s0,0,0-.06,0,0,0-.06,0,0,0-.06,0,0,0-.07V2.48s0,0,0-.07,0,0,0-.06V2.29s0,0,0-.06V2.16a.14.14,0,0,1,0-.06V2a.13.13,0,0,0,0-.06.14.14,0,0,0,0-.06V1.79l0-.06a.14.14,0,0,0,0-.06l0-.06a.14.14,0,0,0,0-.06.13.13,0,0,0,0-.06l0-.05,0-.06,0,0,0-.05,0-.05,0-.06,0,0s0,0-.05-.05,0,0,0,0l0-.06"/><path class="cls-1" d="M193,22c0,.06-.08.11-.09.17s.06.11.05.16-.05.1-.06.14,0,.11,0,.15-.12.05-.14.09a.67.67,0,0,1-.06.12s0,.08-.07.11a.39.39,0,0,1-.1.08l-.1.07-.11.09-.11.05s-.07.07-.11.09l-.13,0-.12,0c-.05,0-.1,0-.15,0l-.12,0s-.09,0-.13,0h-.13a.67.67,0,0,1-.12-.06s-.1.05-.15,0l-.12-.07s-.05-.07-.09-.09-.09,0-.13,0,0-.08-.07-.11-.09,0-.11-.07,0-.08-.08-.11-.1-.05-.12-.09,0-.1,0-.14-.09-.07-.11-.12,0-.1,0-.15-.05-.1-.05-.16.06-.11.06-.17v-.48c0-.17,0-.34,0-.52s0-.34,0-.52,0-.36,0-.54.05-.37.05-.55-.06-.38-.06-.56,0-.38,0-.57,0-.38,0-.58,0-.38,0-.57,0-.39,0-.58.07-.39.07-.58,0-.38,0-.57,0-.38,0-.56,0-.38,0-.56-.05-.37-.05-.55.05-.36.05-.53,0-.17,0-.25.05-.17.05-.26,0-.16,0-.24v-.24c0-.08-.06-.16-.06-.24s0-.16,0-.23,0-.16,0-.23,0-.15,0-.22,0-.15,0-.22.08-.14.08-.21,0-.13,0-.2-.06-.13-.06-.19v-.19c0-.06,0-.12,0-.18s0-.12,0-.18a1,1,0,0,1-.05-.16s0-.09,0-.14a.57.57,0,0,1,0-.13c0-.05,0-.08.06-.13a.53.53,0,0,1,0-.12.61.61,0,0,1,0-.13.39.39,0,0,1,.08-.1.26.26,0,0,1,.09-.09s0-.09.06-.12.09,0,.12-.06l.11-.08.11-.07s.06-.08.1-.1.11,0,.15,0,.1,0,.15,0l.14-.05h.15s.08,0,.13,0l.13,0c.05,0,.07.07.12.08s.1,0,.14,0,.07.07.11.08l.12,0s.09,0,.13,0,0,.11.06.13.08,0,.11.06,0,.08.06.11.11,0,.13.07,0,.1,0,.13.09.06.11.11,0,.1,0,.14.08.09.08.14-.05.1-.05.15H193a2.08,2.08,0,0,0,0,.25c0,.09,0,.18-.05.28v.29c0,.11,0,.22,0,.33s0,.23,0,.35-.06.23-.06.36,0,.25,0,.38,0,.27,0,.4,0,.28,0,.42,0,.29-.05.43,0,.3,0,.45v.91c0,.15,0,.31,0,.47s.06.32.06.47,0,.32,0,.48,0,.27,0,.4,0,.27,0,.4,0,.27,0,.4,0,.27,0,.4V18c0,.13,0,.26,0,.39s0,.26,0,.39v.39c0,.12,0,.25,0,.38s0,.25,0,.37v.37c0,.12-.07.24-.07.36s.09.24.1.35,0,.23,0,.34v.33c0,.11,0,.22,0,.32h0v0s0,0,0,0"/><path class="cls-2" d="M193,22c0,.06-.08.11-.09.17s.06.11.05.16-.05.1-.06.14,0,.11,0,.15-.12.05-.14.09a.67.67,0,0,1-.06.12s0,.08-.07.11a.39.39,0,0,1-.1.08l-.1.07-.11.09-.11.05s-.07.07-.11.09l-.13,0-.12,0c-.05,0-.1,0-.15,0l-.12,0s-.09,0-.13,0h-.13a.67.67,0,0,1-.12-.06s-.1.05-.15,0l-.12-.07s-.05-.07-.09-.09-.09,0-.13,0,0-.08-.07-.11-.09,0-.11-.07,0-.08-.08-.11-.1-.05-.12-.09,0-.1,0-.14-.09-.07-.11-.12,0-.1,0-.15-.05-.1-.05-.16.06-.11.06-.17v-.48c0-.17,0-.34,0-.52s0-.34,0-.52,0-.36,0-.54.05-.37.05-.55-.06-.38-.06-.56,0-.38,0-.57,0-.38,0-.58,0-.38,0-.57,0-.39,0-.58.07-.39.07-.58,0-.38,0-.57,0-.38,0-.56,0-.38,0-.56-.05-.37-.05-.55.05-.36.05-.53,0-.17,0-.25.05-.17.05-.26,0-.16,0-.24v-.24c0-.08-.06-.16-.06-.24s0-.16,0-.23,0-.16,0-.23,0-.15,0-.22,0-.15,0-.22.08-.14.08-.21,0-.13,0-.2-.06-.13-.06-.19v-.19c0-.06,0-.12,0-.18s0-.12,0-.18a1,1,0,0,1-.05-.16s0-.09,0-.14a.57.57,0,0,1,0-.13c0-.05,0-.08.06-.13a.53.53,0,0,1,0-.12.61.61,0,0,1,0-.13.39.39,0,0,1,.08-.1.26.26,0,0,1,.09-.09s0-.09.06-.12.09,0,.12-.06l.11-.08.11-.07s.06-.08.1-.1.11,0,.15,0,.1,0,.15,0l.14-.05h.15s.08,0,.13,0l.13,0c.05,0,.07.07.12.08s.1,0,.14,0,.07.07.11.08l.12,0s.09,0,.13,0,0,.11.06.13.08,0,.11.06,0,.08.06.11.11,0,.13.07,0,.1,0,.13.09.06.11.11,0,.1,0,.14.08.09.08.14-.05.1-.05.15H193a2.08,2.08,0,0,0,0,.25c0,.09,0,.18-.05.28v.29c0,.11,0,.22,0,.33s0,.23,0,.35-.06.23-.06.36,0,.25,0,.38,0,.27,0,.4,0,.28,0,.42,0,.29-.05.43,0,.3,0,.45v.91c0,.15,0,.31,0,.47s.06.32.06.47,0,.32,0,.48,0,.27,0,.4,0,.27,0,.4,0,.27,0,.4,0,.27,0,.4V18c0,.13,0,.26,0,.39s0,.26,0,.39v.39c0,.12,0,.25,0,.38s0,.25,0,.37v.37c0,.12-.07.24-.07.36s.09.24.1.35,0,.23,0,.34v.33c0,.11,0,.22,0,.32h0v0S193,22,193,22Z"/><path class="cls-1" d="M30.49,7c-.1-.11-.24-.17-.33-.28s-.16-.24-.27-.34-.24-.16-.35-.25-.16-.24-.27-.34-.24-.15-.35-.25l-.32-.27c-.11-.09-.15-.27-.26-.36s-.25-.14-.37-.23-.25-.13-.36-.22-.19-.23-.3-.31-.26-.14-.37-.22l-.37-.23c-.11-.07-.25-.12-.37-.2l-.35-.25L25.5,3c-.12-.07-.27-.1-.4-.16s-.22-.19-.34-.25-.27-.11-.4-.18-.28-.08-.4-.14l-.39-.17-.39-.19-.39-.15c-.14-.05-.25-.14-.38-.19s-.25-.17-.38-.22-.29,0-.43-.08-.29,0-.42-.06S20.93,1,20.79,1s-.28,0-.42-.08L20,.81,19.53.7c-.14,0-.29,0-.43,0S18.83.62,18.69.6s-.28,0-.43,0l-.42,0-.42,0H17c-.15,0-.29-.13-.43-.12s-.28.11-.43.12-.29,0-.43,0-.29,0-.44,0-.28.1-.42.12L14.42.7c-.14,0-.29,0-.44,0l-.42.09-.43.07c-.14,0-.25.16-.39.19l-.42.12-.42.1-.4.17-.4.15-.42.13c-.13.05-.28.07-.41.12s-.26.14-.39.2-.3,0-.43.09-.22.23-.35.29-.29.07-.41.14-.24.17-.37.24-.3.05-.43.12-.23.17-.35.25-.26.13-.39.21-.22.19-.34.27l-.37.23c-.11.08-.22.19-.33.27s-.22.2-.33.28l-.35.26c-.12.09-.22.19-.33.29s-.27.12-.38.22-.19.22-.3.31-.25.16-.36.26-.18.22-.29.32-.17.24-.27.34-.22.2-.31.31S3,6.93,2.86,7s-.2.21-.29.33-.11.27-.19.38-.12.26-.2.38-.19.22-.26.34-.11.27-.18.39-.24.2-.3.32,0,.31-.07.45-.16.23-.22.37-.17.24-.22.37,0,.29-.09.43-.13.25-.17.39,0,.29-.05.43S.53,11.88.5,12s0,.28,0,.43-.07.27-.1.41,0,.28-.07.42-.12.27-.14.42,0,.29,0,.43-.06.28-.07.42S0,14.83,0,15s0,.28,0,.42,0,.29,0,.43.07.29.07.43,0,.28,0,.43.06.28.07.42-.06.29,0,.43,0,.29,0,.43.07.28.09.42,0,.29,0,.43.1.28.12.42.1.27.13.41,0,.28.07.42,0,.29,0,.43.1.27.14.41-.05.3,0,.44.2.25.24.38,0,.29.06.43.11.26.16.4.1.27.15.4.12.26.17.39,0,.3.08.43.15.24.21.37l.18.39c.07.13.15.24.22.36s.06.3.12.42.21.21.28.33.21.2.29.32,0,.31.13.42.17.23.25.34.24.18.33.29.18.21.28.31.23.16.33.27.18.22.28.31.15.26.26.35.24.16.35.25.26.12.37.2l.35.24.36.22.37.2c.13.06.24.16.36.22s.27.09.4.15.27.08.4.14.23.19.36.23.28,0,.42.09.26.1.4.13l.41.12c.14,0,.28,0,.42,0s.27.11.41.13.28,0,.42,0,.28.1.42.11l.42,0c.14,0,.29-.06.42-.06s.29,0,.43,0,.28.08.42.08.28-.07.42-.08.29.1.43.09.29-.05.45-.07l.44-.11c.14,0,.28-.11.43-.15s.28-.11.43-.15.3,0,.44-.09.29-.06.44-.11.27-.12.42-.17.19,0,.32-.15c-.12-.06-.23-.07-.35-.14a3.92,3.92,0,0,1-.32-.25c-.12-.08-.22-.17-.33-.25S15.51,29,15.4,29s-.14-.25-.24-.34-.27-.11-.37-.21a4,4,0,0,1-.31-.27c-.09-.1-.09-.28-.17-.39s-.24-.16-.32-.28.16-.39.4-.26.19.21.31.28.29,0,.42.11.23.14.36.2.22.17.35.23.23.15.36.2.29,0,.42.08l.39.15.39.14c.13.05.25.12.39.16s.25.11.38.15l.39.12v.06l.42.11c.14,0,.3,0,.44,0s.27.11.42.12.29,0,.43,0l.42,0c.14,0,.29.07.43.07a3,3,0,0,0,.43-.05,3.13,3.13,0,0,0,.43,0,3.2,3.2,0,0,0,.42-.1l.43,0c.14,0,.29.06.44,0s.26-.14.4-.17.29,0,.43-.06l.42-.11.4-.13c.14,0,.28-.06.41-.11l.41-.16c.13-.05.28-.06.41-.11l.39-.18c.14-.06.23-.18.36-.25s.3-.06.42-.12l.38-.2c.13-.07.25-.15.37-.23l.37-.21.36-.25c.12-.08.21-.19.33-.28l.34-.26.32-.29c.11-.09.24-.16.35-.25l.32-.29c.1-.1.11-.29.21-.39s.24-.17.34-.27l.28-.33c.09-.11.19-.21.28-.33l.24-.35c.08-.12.13-.26.21-.37s.23-.2.3-.32l.2-.39c.07-.12.08-.28.14-.41s.2-.22.26-.35.12-.26.17-.39.07-.28.12-.42.08-.28.12-.41.1-.27.14-.41,0-.29,0-.43.14-.27.17-.41,0-.29,0-.44.11-.27.12-.41,0-.28,0-.42,0-.29,0-.43,0-.28,0-.42,0-.28,0-.43.12-.27.12-.41,0-.29,0-.43,0-.28,0-.42.08-.28.08-.42,0-.28,0-.43-.07-.27-.07-.42,0-.28,0-.42,0-.28,0-.42,0-.28-.05-.42-.1-.27-.13-.41,0-.29,0-.42-.12-.26-.16-.4-.13-.25-.17-.39-.12-.25-.17-.38S33,11,33,10.85s-.06-.28-.11-.41-.11-.26-.18-.38-.13-.25-.2-.38-.12-.25-.19-.37S32.08,9.1,32,9s-.17-.22-.25-.34-.16-.23-.25-.34-.1-.27-.19-.39-.23-.17-.33-.28a2.69,2.69,0,0,0-.26-.33c-.09-.11-.15-.24-.24-.35"/></g></g></svg>