<svg width="18" height="18" viewBox="0 0 18 18" fill="none" xmlns="http://www.w3.org/2000/svg">
<path d="M8.98242 0.0703125C10.4824 0.0703125 11.707 0.0878906 12.6562 0.123047C13.4648 0.158203 14.1855 0.298828 14.8184 0.544922C15.4277 0.779297 15.9551 1.11914 16.4004 1.56445C16.8457 2.00977 17.1855 2.53711 17.4199 3.14648C17.666 3.7793 17.8066 4.5 17.8418 5.30859C17.877 6.25781 17.8945 7.48242 17.8945 8.98242C17.8945 10.4824 17.877 11.707 17.8418 12.6562C17.8066 13.4648 17.666 14.1855 17.4199 14.8184C17.1855 15.4277 16.8457 15.9551 16.4004 16.4004C15.9551 16.8457 15.4277 17.1855 14.8184 17.4199C14.1855 17.666 13.4648 17.8066 12.6562 17.8418C11.707 17.877 10.4824 17.8945 8.98242 17.8945C7.48242 17.8945 6.25781 17.877 5.30859 17.8418C4.5 17.8066 3.7793 17.666 3.14648 17.4199C2.53711 17.1855 2.00977 16.8457 1.56445 16.4004C1.11914 15.9551 0.779297 15.4277 0.544922 14.8184C0.298828 14.1855 0.158203 13.4648 0.123047 12.6562C0.0878906 11.707 0.0703125 10.4824 0.0703125 8.98242C0.0703125 7.48242 0.0878906 6.25781 0.123047 5.30859C0.158203 4.5 0.298828 3.7793 0.544922 3.14648C0.779297 2.53711 1.11914 2.00977 1.56445 1.56445C2.00977 1.11914 2.53711 0.779297 3.14648 0.544922C3.7793 0.298828 4.5 0.158203 5.30859 0.123047C6.25781 0.0878906 7.48242 0.0703125 8.98242 0.0703125ZM8.98242 1.23047C7.42383 1.23047 6.15234 1.24805 5.16797 1.2832C4.53516 1.30664 3.94922 1.41797 3.41016 1.61719C2.56641 1.96875 1.96875 2.56641 1.61719 3.41016C1.41797 3.94922 1.30664 4.53516 1.2832 5.16797C1.24805 6.15234 1.23047 7.42383 1.23047 8.98242C1.23047 10.541 1.24805 11.8125 1.2832 12.7969C1.30664 13.4297 1.41797 14.0156 1.61719 14.5547C1.96875 15.3984 2.56641 15.9961 3.41016 16.3477C3.94922 16.5469 4.53516 16.6582 5.16797 16.6816C6.15234 16.7168 7.42383 16.7344 8.98242 16.7344C10.541 16.7344 11.8125 16.7168 12.7969 16.6816C13.4297 16.6582 14.0156 16.5469 14.5547 16.3477C15.3984 15.9961 15.9961 15.3984 16.3477 14.5547C16.5469 14.0156 16.6582 13.4297 16.6816 12.7969C16.7168 11.8125 16.7344 10.541 16.7344 8.98242C16.7344 7.42383 16.7168 6.15234 16.6816 5.16797C16.6582 4.53516 16.5469 3.94922 16.3477 3.41016C15.9961 2.56641 15.3984 1.96875 14.5547 1.61719C14.0156 1.41797 13.4297 1.30664 12.7969 1.2832C11.8125 1.24805 10.541 1.23047 8.98242 1.23047ZM8.98242 12.5508C9.9668 12.5508 10.8076 12.2021 11.5049 11.5049C12.2021 10.8076 12.5508 9.9668 12.5508 8.98242C12.5508 7.99805 12.2021 7.15723 11.5049 6.45996C10.8076 5.7627 9.9668 5.41406 8.98242 5.41406C7.99805 5.41406 7.15723 5.7627 6.45996 6.45996C5.7627 7.15723 5.41406 7.99805 5.41406 8.98242C5.41406 9.9668 5.7627 10.8076 6.45996 11.5049C7.15723 12.2021 7.99805 12.5508 8.98242 12.5508ZM8.98242 4.41211C10.248 4.41211 11.3262 4.85742 12.2168 5.74805C13.1074 6.63867 13.5527 7.7168 13.5527 8.98242C13.5527 10.248 13.1074 11.3262 12.2168 12.2168C11.3262 13.1074 10.248 13.5527 8.98242 13.5527C7.7168 13.5527 6.63867 13.1074 5.74805 12.2168C4.85742 11.3262 4.41211 10.248 4.41211 8.98242C4.41211 7.7168 4.85742 6.63867 5.74805 5.74805C6.63867 4.85742 7.7168 4.41211 8.98242 4.41211ZM14.8184 4.23633C14.8184 4.5293 14.7129 4.77832 14.502 4.9834C14.291 5.18848 14.0332 5.29102 13.7285 5.29102C13.4355 5.29102 13.1865 5.18848 12.9814 4.9834C12.7764 4.77832 12.6738 4.5293 12.6738 4.23633C12.6738 3.93164 12.7764 3.67383 12.9814 3.46289C13.1865 3.25195 13.4355 3.14648 13.7285 3.14648C14.0215 3.14648 14.2764 3.25488 14.4932 3.47168C14.71 3.68848 14.8184 3.94336 14.8184 4.23633Z" fill="white"/>
</svg>
