<svg width="21" height="16" viewBox="0 0 21 16" fill="none" xmlns="http://www.w3.org/2000/svg">
<path d="M21 1.89415C20.2137 2.22073 19.3797 2.43499 18.5256 2.52979C19.4252 2.02516 20.0983 1.23109 20.4197 0.295579C19.5741 0.766187 18.6489 1.09758 17.684 1.27538C17.2809 0.872266 16.7938 0.551064 16.2529 0.331681C15.7119 0.112297 15.1287 -0.000594251 14.5393 2.35237e-06C12.1602 2.35237e-06 10.231 1.80823 10.231 4.03938C10.231 4.35566 10.2691 4.66428 10.3428 4.96011C6.76201 4.79161 3.58759 3.18333 1.46258 0.739199C1.07943 1.35568 0.8781 2.05663 0.879238 2.77014C0.878673 3.43519 1.05334 4.09007 1.3877 4.6766C1.72207 5.26312 2.2058 5.76313 2.79589 6.13219C2.11184 6.11182 1.44286 5.9386 0.844603 5.62695C0.844058 5.64382 0.844058 5.66044 0.844058 5.67783C0.844058 7.63436 2.329 9.26694 4.29965 9.63845C3.66511 9.79951 2.9998 9.82311 2.35409 9.70749C2.90225 11.3119 4.49328 12.4802 6.37857 12.5129C4.85243 13.6358 2.96784 14.2448 1.02787 14.2421C0.680155 14.2421 0.33735 14.2232 0 14.1856C1.96992 15.3723 4.2626 16.0022 6.60411 16C14.5287 16 18.8622 9.8453 18.8622 4.50805C18.8622 4.33316 18.8578 4.15853 18.8496 3.98491C19.6936 3.41368 20.4218 2.70562 21 1.89415Z" fill="white"/>
</svg>
