<svg width="19" height="13" viewBox="0 0 19 13" fill="none" xmlns="http://www.w3.org/2000/svg">
<path d="M18.8273 3.34286C18.6545 1.95 18.4818 0.928571 17.9636 0.557143C17.4455 0.0928571 12.9545 0 9.5 0C6.04545 0 1.55455 0.0928571 1.03636 0.557143C0.518182 0.928571 0.345455 1.95 0.172727 3.34286C3.86076e-08 4.73571 0 5.57143 0 6.5C0 7.42857 3.86076e-08 8.26429 0.172727 9.65714C0.345455 11.05 0.518182 12.0714 1.03636 12.4429C1.55455 12.9071 6.04545 13 9.5 13C12.9545 13 17.4455 12.9071 17.9636 12.4429C18.4818 12.0714 18.6545 11.05 18.8273 9.65714C19 8.26429 19 7.42857 19 6.5C19 5.57143 19 4.73571 18.8273 3.34286ZM7.77273 9.84286V3.15714L12.9545 6.5L7.77273 9.84286Z" fill="white"/>
</svg>
