<svg width="21" height="17" viewBox="0 0 21 17" fill="none" xmlns="http://www.w3.org/2000/svg">
<path d="M17.325 14.875H3.675C3.38625 14.875 3.15 15.1141 3.15 15.4062V16.4688C3.15 16.7609 3.38625 17 3.675 17H17.325C17.6137 17 17.85 16.7609 17.85 16.4688V15.4062C17.85 15.1141 17.6137 14.875 17.325 14.875ZM19.425 4.25C18.5555 4.25 17.85 4.96387 17.85 5.84375C17.85 6.07949 17.9025 6.29863 17.9944 6.50117L15.6187 7.94219C15.1134 8.24766 14.4605 8.075 14.1684 7.55703L11.4942 2.82227C11.8453 2.53008 12.075 2.0918 12.075 1.59375C12.075 0.713867 11.3695 0 10.5 0C9.63047 0 8.925 0.713867 8.925 1.59375C8.925 2.0918 9.15469 2.53008 9.50578 2.82227L6.83156 7.55703C6.53953 8.075 5.88328 8.24766 5.38125 7.94219L3.00891 6.50117C3.0975 6.30195 3.15328 6.07949 3.15328 5.84375C3.15328 4.96387 2.44781 4.25 1.57828 4.25C0.70875 4.25 0 4.96387 0 5.84375C0 6.72363 0.705469 7.4375 1.575 7.4375C1.66031 7.4375 1.74562 7.42422 1.82766 7.41094L4.2 13.8125H16.8L19.1723 7.41094C19.2544 7.42422 19.3397 7.4375 19.425 7.4375C20.2945 7.4375 21 6.72363 21 5.84375C21 4.96387 20.2945 4.25 19.425 4.25Z" fill="white"/>
</svg>
