<svg width="53" height="53" viewBox="0 0 53 53" fill="none" xmlns="http://www.w3.org/2000/svg">
<rect width="53" height="53" fill="#FFAB5E"/>
<path d="M39.62 24.45H13.38C12.2484 24.45 12.15 25.3663 12.15 26.5C12.15 27.6336 12.2484 28.55 13.38 28.55H39.62C40.7516 28.55 40.85 27.6336 40.85 26.5C40.85 25.3663 40.7516 24.45 39.62 24.45V24.45ZM39.62 32.65H13.38C12.2484 32.65 12.15 33.5663 12.15 34.7C12.15 35.8336 12.2484 36.75 13.38 36.75H39.62C40.7516 36.75 40.85 35.8336 40.85 34.7C40.85 33.5663 40.7516 32.65 39.62 32.65V32.65ZM13.38 20.35H39.62C40.7516 20.35 40.85 19.4336 40.85 18.3C40.85 17.1664 40.7516 16.25 39.62 16.25H13.38C12.2484 16.25 12.15 17.1664 12.15 18.3C12.15 19.4336 12.2484 20.35 13.38 20.35Z" fill="white"/>
</svg>
