<svg width="18" height="13" viewBox="0 0 18 13" fill="none" xmlns="http://www.w3.org/2000/svg">
<path d="M17.8364 3.34286C17.6727 1.95 17.5091 0.928571 17.0182 0.557143C16.5273 0.092857 12.2727 0 9 0C5.72727 0 1.47273 0.092857 0.981818 0.557143C0.490909 0.928571 0.327273 1.95 0.163636 3.34286C4.02331e-08 4.73571 0 5.57143 0 6.5C0 7.42857 4.02331e-08 8.26429 0.163636 9.65714C0.327273 11.05 0.490909 12.0714 0.981818 12.4429C1.47273 12.9071 5.72727 13 9 13C12.2727 13 16.5273 12.9071 17.0182 12.4429C17.5091 12.0714 17.6727 11.05 17.8364 9.65714C18 8.26429 18 7.42857 18 6.5C18 5.57143 18 4.73571 17.8364 3.34286ZM7.36364 9.84286V3.15714L12.2727 6.5L7.36364 9.84286Z" fill="black"/>
</svg>
